<?xml version="1.0" encoding="utf-8"?>
<!-- Generator: Adobe Illustrator 24.1.2, SVG Export Plug-In . SVG Version: 6.00 Build 0)  -->
<svg version="1.1" id="Layer_1" xmlns="http://www.w3.org/2000/svg" xmlns:xlink="http://www.w3.org/1999/xlink" x="0px" y="0px"
	 viewBox="0 0 1500 1500" style="enable-background:new 0 0 1500 1500;" xml:space="preserve">
<style type="text/css">
	.st0{fill:url(#SVGID_1_);}
	.st1{fill:url(#SVGID_2_);}
	.st2{fill:url(#SVGID_3_);}
	.st3{fill:url(#SVGID_4_);}
	.st4{fill:url(#SVGID_5_);}
	.st5{fill:#333333;}
	.st6{fill:#FFFFFF;}
	.st7{fill:url(#SVGID_6_);}
	.st8{fill:url(#SVGID_7_);}
	.st9{fill:url(#SVGID_8_);}
	.st10{fill:url(#SVGID_9_);}
	.st11{fill:url(#SVGID_10_);}
	.st12{fill:url(#SVGID_11_);}
	.st13{fill:url(#SVGID_12_);}
	.st14{fill:url(#SVGID_13_);}
	.st15{fill:url(#SVGID_14_);}
	.st16{fill:url(#SVGID_15_);}
</style>
<g id="Mark_2_">
	<g>
		<linearGradient id="SVGID_1_" gradientUnits="userSpaceOnUse" x1="544.6964" y1="380.8761" x2="1201.3859" y2="380.8761">
			<stop  offset="0" style="stop-color:#7FCAD5"/>
			<stop  offset="1" style="stop-color:#4AC2E7"/>
		</linearGradient>
		<path class="st0" d="M604.39,365.97l144.14-140.54l393.09,385.15c6.84,6.7,15.72,10.04,24.6,10.04c9.12,0,18.23-3.53,25.11-10.55
			c13.59-13.87,13.36-36.13-0.51-49.71L773.2,151.17c-13.64-13.37-35.47-13.4-49.14-0.06L555.31,315.63
			c-13.9,13.56-14.18,35.81-0.63,49.71S590.49,379.52,604.39,365.97z"/>
		<linearGradient id="SVGID_2_" gradientUnits="userSpaceOnUse" x1="298.6141" y1="1119.1243" x2="955.3036" y2="1119.1243">
			<stop  offset="0" style="stop-color:#7FCAD5"/>
			<stop  offset="1" style="stop-color:#4AC2E7"/>
		</linearGradient>
		<path class="st1" d="M895.61,1134.03l-144.14,140.54L358.37,889.41c-13.87-13.59-36.12-13.36-49.71,0.51
			c-13.59,13.87-13.36,36.13,0.51,49.71l417.64,409.2c6.83,6.7,15.72,10.04,24.6,10.04c8.86,0,17.71-3.33,24.54-9.98l168.74-164.52
			c13.9-13.56,14.18-35.81,0.63-49.71C931.76,1120.76,909.51,1120.48,895.61,1134.03z"/>
		<linearGradient id="SVGID_3_" gradientUnits="userSpaceOnUse" x1="713.439" y1="683.2063" x2="1201.3859" y2="683.2063">
			<stop  offset="0" style="stop-color:#7FCAD5"/>
			<stop  offset="1" style="stop-color:#4AC2E7"/>
		</linearGradient>
		<path class="st2" d="M773.2,453.5c-13.87-13.59-36.12-13.36-49.71,0.51c-13.59,13.87-13.36,36.13,0.51,49.71l417.64,409.2
			c6.84,6.7,15.72,10.04,24.6,10.04c9.12,0,18.23-3.53,25.11-10.55c13.59-13.87,13.36-36.13-0.51-49.71L773.2,453.5z"/>
		<linearGradient id="SVGID_4_" gradientUnits="userSpaceOnUse" x1="302.8333" y1="756.3275" x2="1201.3853" y2="756.3275">
			<stop  offset="0" style="stop-color:#7FCAD5"/>
			<stop  offset="1" style="stop-color:#4AC2E7"/>
		</linearGradient>
		<path class="st3" d="M1190.96,1141.25L362.72,321.44c-13.8-13.66-36.06-13.54-49.71,0.25c-13.66,13.8-13.54,36.06,0.25,49.71
			l828.24,819.81c6.85,6.79,15.79,10.17,24.73,10.17c9.06,0,18.11-3.48,24.99-10.42C1204.87,1177.16,1204.76,1154.9,1190.96,1141.25
			z"/>
		<linearGradient id="SVGID_5_" gradientUnits="userSpaceOnUse" x1="302.8329" y1="842.106" x2="797.8102" y2="842.106">
			<stop  offset="0" style="stop-color:#7FCAD5"/>
			<stop  offset="1" style="stop-color:#4AC2E7"/>
		</linearGradient>
		<path class="st4" d="M737.92,1077.31c6.85,6.79,15.79,10.17,24.73,10.17c9.06,0,18.11-3.48,24.98-10.42
			c13.66-13.8,13.55-36.06-0.25-49.72L362.72,606.9c-13.8-13.66-36.05-13.55-49.71,0.25c-13.66,13.8-13.55,36.06,0.25,49.71
			L737.92,1077.31z"/>
	</g>
</g>
</svg>
